#!OML:ASF E:/inclinewalkrobotboard/Project1/Captureday1/Session1/subject1.ASF
:FULLY-SPECIFIED
:DEGREES
176
root 0 0 0 1.4289116764945935 -3.5423257199502514 1.8885830664420526
lowerback 11.96766455271652 0.8949166229330645 -0.09436504031358905
upperback -4.437013042956787 1.1222310252481016 -0.630496518612181
thorax -11.55731244279495 0.5155000558748917 -0.8723878227370322
lowerneck -6.090889077298725 1.6547580575134357 4.627592810521276
upperneck 18.44694776391995 3.1600119564073634 -8.27351743913518
head 6.778671683643757 1.164753902958501 -3.1906330821248607
rclavicle -1.7429993422434167E-16 -9.703903301267612E-16
rhumerus 22.22652823384867 15.94996534719507 -46.54157922985671
rradius 74.31296594951675
rwrist 27.892142757761537
rhand -34.856322056513115 -59.76098955863741
rfingers 7.12502
rthumb -8.016240392709667 -89.57332151377369
lclavicle -1.732671030916037E-16 -9.492973076060053E-16
lhumerus 22.755679022778647 -12.786320214640426 43.6580279215545
lradius 71.29125479869043
lwrist -23.61722133087815
lhand -45.32399096461883 -73.13117066076346
lfingers 7.12502
lthumb -18.081916137622564 -43.913748943802716
rfemur -25.71431492254374 -2.207380504780942 16.608725610936173
rtibia 54.82210394206644
rfoot -27.46373126454656 -16.543263062504188
rtoes -17.83858371682933
lfemur -21.706171894736997 1.207265661628757 -18.19919244999084
ltibia 48.50178899258633
lfoot -23.625683268588624 -3.594585099688315
ltoes -15.33767028659376
177
root 0 0 0 1.4272557967072736 -3.532763358309476 1.9007176710800457
lowerback 11.967136702943469 0.8893171267379725 -0.10827375968539188
upperback -4.43453038404854 1.1132417784810702 -0.6299843022843307
thorax -11.555057220791618 0.51145816732148 -0.8626950568531099
lowerneck -6.093489953424315 1.6547877019201225 4.624036510904006
upperneck 18.446861320111424 3.1592509142465306 -8.271744427079177
head 6.778889037378135 1.1644313151665693 -3.1892989320527594
rclavicle -1.7444538901058545E-16 -9.70457595088655E-16
rhumerus 22.218722064967814 15.944702599822604 -46.54612456736539
rradius 74.30569905968122
rwrist 27.888697150087516
rhand -34.85371460946949 -59.74871466270973
rfingers 7.12502
rthumb -8.013713615245104 -89.56125595311671
lclavicle -1.7303425913722253E-16 -9.492097706521234E-16
lhumerus 22.772658243340732 -12.790537063288511 43.64627855181109
lradius 71.30454224416538
lwrist -23.626075253886455
lhand -45.32968730486783 -73.16058293963313
lfingers 7.12502
lthumb -18.087294632701003 -43.942769601601896
rfemur -25.709541893478306 -2.2048475376373586 16.612316537547272
rtibia 54.81583506747569
rfoot -27.457238373907373 -16.539870818917922
rtoes -17.831253399591716
lfemur -21.71275754356072 1.2094665949988104 -18.197860105915584
ltibia 48.51462766712197
lfoot -23.63319695328517 -3.5966980121630505
ltoes -15.345275354040968
178
root 0 0 0 1.4258887307275625 -3.5257986637483762 1.9093034836226692
lowerback 11.966702263549466 0.8852411859375706 -0.11828037481565845
upperback -4.432533280671427 1.106722248417339 -0.6295108464767539
thorax -11.553167906647543 0.508524219874426 -0.8556024012471201
lowerneck -6.095803472116066 1.6546136545312546 4.621182110812418
upperneck 18.446836157074944 3.1584057449469323 -8.270095622364114
head 6.779133716807346 1.1640778099244233 -3.1882100335523194
rclavicle -1.7456993257069708E-16 -9.705066012947593E-16
rhumerus 22.21294741726455 15.94082563977628 -46.54951668760702
rradius 74.30032490783177
rwrist 27.886150431295608
rhand -34.8518046538338 -59.73970535654212
rfingers 7.12502
rthumb -8.011852663395246 -89.55236271776936
lclavicle -1.7283921315347192E-16 -9.491569705096672E-16
lhumerus 22.787272546119244 -12.794179511769457 43.63613109346018
lradius 71.31599271553365
lwrist -23.633722753470362
lhand -45.33461135435191 -73.18591561879042
lfingers 7.12502
lthumb -18.091963639323424 -43.96786964452164
rfemur -25.69272168976393 -2.1966763751547713 16.624353953846157
rtibia 54.79665082276256
rfoot -27.435894538524686 -16.52832805692518
rtoes -17.8071100715519
lfemur -21.726869714796507 1.2134432365319083 -18.195139755475253
ltibia 48.537426594858324
lfoot -23.648694459758673 -3.5991867442338252
ltoes -15.35892675104097
179
root 0 0 0 1.423806733525327 -3.519276101806974 1.9160828672298027
lowerback 11.965993516210148 0.8814223137319068 -0.12704519887414278
upperback -4.429662439467247 1.1007252430556607 -0.6285296858312183
thorax -11.550079350676032 0.5058056799658992 -0.8487050982457981
lowerneck -6.100195433348361 1.6534362616555922 4.617099372983777
upperneck 18.44705126414369 3.156116821653369 -8.266651173941913
head 6.779835174820073 1.1631278565137269 -3.1865397736553533
rclavicle -1.7532404690390645E-16 -9.708032957809065E-16
rhumerus 22.19576079117423 15.930000489909974 -46.56012498407276
rradius 74.28498920147874
rwrist 27.878460716708055
rhand -34.846210655827555 -59.71413448544648
rfingers 7.12502
rthumb -8.006352794364341 -89.52703402796837
lclavicle -1.7301916209477724E-16 -9.483742429102724E-16
lhumerus 22.802711537540564 -12.79779197873844 43.62566980229076
lradius 71.32791397889685
lwrist -23.641364846473657
lhand -45.33972720408787 -73.21095674560755
lfingers 7.12502
lthumb -18.09649620356955 -43.99388753398104
rfemur -25.637004672822407 -2.169925605670631 16.66398124156148
rtibia 54.73429398351051
rfoot -27.366093929679003 -16.490886506789042
rtoes -17.72816665329875
lfemur -21.778593079443127 1.2268798384140753 -18.185548212375892
ltibia 48.613074370567155
lfoot -23.704494315261343 -3.604836190611325
ltoes -15.40454142312467
180
root 0 0 0 1.4240143685064144 -3.521468049135449 1.9130754300928305
lowerback 11.96612264852969 0.8827211652388266 -0.12367050117633127
upperback -4.430068303663289 1.1028553044995948 -0.6285745705365858
thorax -11.550401537971727 0.5067646169644888 -0.8509979934051525
lowerneck -6.099872710428227 1.6532612901695731 4.6177660663052515
upperneck 18.447139042147786 3.1560320463217413 -8.266800511238245
head 6.779872491367765 1.163087041006873 -3.186790682019695
rclavicle -1.7481366868467118E-16 -9.705900013072276E-16
rhumerus 22.206324494357077 15.936469368952691 -46.5534086835468
rradius 74.29412482893974
rwrist 27.883229813515136
rhand -34.84962598144199 -59.72945167923737
rfingers 7.12502
rthumb -8.009696426895875 -89.54224957903675
lclavicle -1.7245716737897702E-16 -9.48967946096891E-16
lhumerus 22.812569587846735 -12.800520143793456 43.618547392659366
lradius 71.33585343569607
lwrist -23.64698828686253
lhand -45.34315705889538 -73.22979985419447
lfingers 7.12502
lthumb -18.100053516821852 -44.01123163182126
rfemur -25.608624292170518 -2.1566062227657925 16.683832898036112
rtibia 54.70347576635136
rfoot -27.331469504379296 -16.47140051756911
rtoes -17.688330076280756
lfemur -21.798618608922126 1.2318509862010993 -18.181492808040744
ltibia 48.6417272857578
lfoot -23.726243124728843 -3.606582030379659
ltoes -15.42144439323541
